<svg width="400" height="400" viewBox="0 0 400 400" fill="none" xmlns="http://www.w3.org/2000/svg">
<circle cx="226.796" cy="145.227" r="145.227" fill="white"/>
<circle cx="168.227" cy="254.773" r="145.227" fill="url(#paint0_linear_236_465)"/>
<circle cx="226.796" cy="145.227" r="145.227" fill="url(#paint1_linear_236_465)" fill-opacity="0.8"/>
<path d="M168.338 122.561C241.283 122.561 300.439 181.585 300.658 254.478C279.373 269.101 253.599 277.661 225.823 277.661C152.878 277.661 93.7203 218.637 93.502 145.743C114.787 131.12 140.563 122.561 168.338 122.561Z" fill="white"/>
<circle cx="198.21" cy="201.307" r="52.6038" fill="#A697EE"/>
<circle cx="198.21" cy="201.307" r="52.6038" fill="url(#paint2_linear_236_465)"/>
<circle cx="198.21" cy="201.307" r="52.6038" fill="#A697EE"/>
<circle cx="198.21" cy="201.307" r="52.6038" fill="url(#paint3_linear_236_465)"/>
<path d="M197.401 172.175L223.974 187.488V218.113L197.401 233.426L170.828 218.113V187.488L197.401 172.175Z" fill="#C5BDF5"/>
<path d="M197.401 172.175L223.974 187.488V218.113L197.401 233.426L170.828 218.113V187.488L197.401 172.175Z" fill="url(#paint4_linear_236_465)"/>
<path d="M197.401 172.175L170.828 156.863M197.401 172.175L170.828 187.488M197.401 172.175L223.974 187.488M223.974 218.113L250.813 202.647M223.974 218.113L197.401 233.426M223.974 218.113V187.488M197.401 233.426L223.539 248.488M197.401 233.426L170.828 218.113M170.828 218.113V247.604M170.828 218.113V187.488M170.828 187.488L144.521 202.647M223.974 156.296V187.488" stroke="white" stroke-width="5" stroke-linecap="square"/>
<defs>
<linearGradient id="paint0_linear_236_465" x1="217.298" y1="162.883" x2="-24.1807" y2="533.088" gradientUnits="userSpaceOnUse">
<stop stop-color="#A697EE"/>
<stop offset="1" stop-color="#FCCDFF"/>
</linearGradient>
<linearGradient id="paint1_linear_236_465" x1="315.303" y1="11.4025" x2="124.32" y2="342.196" gradientUnits="userSpaceOnUse">
<stop stop-color="#DEDAFA"/>
<stop offset="1" stop-color="#C5BDF5"/>
</linearGradient>
<linearGradient id="paint2_linear_236_465" x1="215.984" y1="168.023" x2="128.516" y2="302.118" gradientUnits="userSpaceOnUse">
<stop stop-color="#A697EE"/>
<stop offset="1" stop-color="#5632A5"/>
</linearGradient>
<linearGradient id="paint3_linear_236_465" x1="215.984" y1="168.023" x2="128.516" y2="302.118" gradientUnits="userSpaceOnUse">
<stop stop-color="#A697EE"/>
<stop offset="1" stop-color="#5632A5"/>
</linearGradient>
<linearGradient id="paint4_linear_236_465" x1="230.057" y1="159.915" x2="174.008" y2="271.842" gradientUnits="userSpaceOnUse">
<stop stop-color="#DEDAFA"/>
<stop offset="0.779063" stop-color="#A99BFF"/>
</linearGradient>
</defs>
</svg>
